<svg width="21" height="21" viewBox="0 0 21 21" fill="none" xmlns="http://www.w3.org/2000/svg">
<path d="M20.7104 3.71019C20.6174 3.80391 20.5068 3.87831 20.385 3.92908C20.2631 3.97985 20.1324 4.00598 20.0004 4.00598C19.8684 4.00598 19.7377 3.97985 19.6158 3.92908C19.4939 3.87831 19.3833 3.80391 19.2904 3.71019L19.0004 3.41019L12.9004 9.52019L10.0004 20.2602C9.94178 20.4783 9.81104 20.6702 9.62946 20.8046C9.44788 20.939 9.22615 21.0079 9.00038 21.0002C8.79074 21.0007 8.58623 20.9354 8.41575 20.8133C8.24528 20.6913 8.11747 20.5188 8.05038 20.3202L6.21038 14.7902L0.680383 13.0002C0.473403 12.9306 0.294885 12.7952 0.172097 12.6146C0.0493098 12.434 -0.0109986 12.2183 0.000383396 12.0002C-0.00734984 11.7744 0.0615832 11.5527 0.195955 11.3711C0.330327 11.1895 0.522222 11.0588 0.740383 11.0002L11.4804 8.10019L17.5904 2.00019L17.2904 1.71019C17.1021 1.52188 16.9963 1.26649 16.9963 1.00019C16.9963 0.733884 17.1021 0.478489 17.2904 0.290185C17.4787 0.101882 17.7341 -0.00390625 18.0004 -0.00390625C18.2667 -0.00390625 18.5221 0.101882 18.7104 0.290185L20.7104 2.29019C20.8041 2.38315 20.8785 2.49375 20.9293 2.61561C20.98 2.73747 21.0062 2.86817 21.0062 3.00019C21.0062 3.1322 20.98 3.2629 20.9293 3.38476C20.8785 3.50662 20.8041 3.61722 20.7104 3.71019Z" fill="#666666"/>
</svg>
