<svg width="60" height="60" viewBox="0 0 60 60" fill="none" xmlns="http://www.w3.org/2000/svg">
<path d="M30 3C44.888 3 57 15.112 57 30C57 44.888 44.888 57 30 57C15.112 57 3 44.888 3 30C3 15.112 15.112 3 30 3ZM30 0C13.433 0 0 13.432 0 30C0 46.568 13.433 60 30 60C46.567 60 60 46.568 60 30C60 13.432 46.567 0 30 0Z" fill="white"/>
<path d="M41.987 26.7452L26.013 16.2322C23.256 14.4182 21 15.6352 21 18.9352V41.0602C21 44.3602 23.259 45.5812 26.021 43.7742L41.98 33.3302C44.741 31.5212 44.744 28.5592 41.987 26.7452ZM39.858 31.1242L25.673 40.4072C24.753 41.0102 24 40.6032 24 39.5032V20.4912C24 19.3912 24.752 18.9862 25.671 19.5912L39.861 28.9292C40.78 29.5332 40.779 30.5212 39.858 31.1242Z" fill="white"/>
</svg>
